<svg xmlns="http://www.w3.org/2000/svg" width="691.88" height="83.06" viewBox="0 0 691.88 83.06"><defs><style>.a{fill:none;stroke-width:1.5px;}.a,.b{stroke:#50675c;stroke-miterlimit:10;}.b{font-size:59.21px;fill:#50675c;font-family:LookingFlowers-Script, Looking Flowers;}.c{letter-spacing:-0.04em;}</style></defs><path class="a" d="M292.48,73.45a2.17,2.17,0,0,1-1-1c-.23-.6,0-.92.06-2.32a3.81,3.81,0,0,0-.16-1.52,3.07,3.07,0,0,0-.86-1.2c-1.49-1.34-3.26-1.64-4.58-2.66a7.17,7.17,0,0,1-2-3.18c-.95-2.17-.76-3.39-1.39-6.8-.56-3-.69-3.66-1-4.39-.72-1.55-1.2-1.54-2.32-3.31a19.67,19.67,0,0,1-2.39-5.83,27.74,27.74,0,0,1-.87-4.87c-.23-2.72.14-3.37-.24-6-.23-1.57-.35-1.21-.77-3.56a20.26,20.26,0,0,1-.25-6.17,3.65,3.65,0,0,1,.93-2.29,3,3,0,0,1,1.56-.8c1.18-.23,2.21.31,3.8,1.31,1.9,1.2,2.79,1.92,4.51,3.14,2.55,1.81,2.61,1.65,4.11,2.85.95.76,1.32,1.14,2.91,2.39.85.67,1,.78,2,1.55,2,1.62,1.81,1.55,2.32,1.86,1.54.93,2.26.7,3.2,1.65a5.56,5.56,0,0,1,1,1.48c.79,1.4.88,1.26,2.95,4.3,1.63,2.41,1.42,2.27,2.27,3.39a20,20,0,0,0,2.37,2.9,4,4,0,0,1,1.12,1.25,3.31,3.31,0,0,1,.4,1.35c.08,1.06-.45,1.5-.25,1.85.32.59,2.13.13,3.39-.14a53.23,53.23,0,0,1,7.3-.8c2.37-.17,4.32-.15,5.86-.13s2.65.07,3.83.12c2.31.11,3.47.17,5,.34,1.94.23,2.26.4,4.18.66,3,.4,4.18,1,4.81.38s0-1.29.66-2.09,1.62-.46,2.78-1.15c1-.6,1.22-1.45,1.95-2.79.29-.53,1.29-1.76,3.27-4.22,4-4.89,4-4.64,5.6-6.83,2.28-3.07,1.93-3.13,3.27-4.57,1.08-1.15,1.32-1.12,6-4.58,1.39-1,3.74-2.76,6-4.33a17.15,17.15,0,0,1,3.13-2c.4-.35.68-.65,1.05-.6.54.06.95.83,1.5,2.82a33.38,33.38,0,0,1,1,5.48c.07.64.23,2.41.27,4.82a46.46,46.46,0,0,1-.15,5.19,36.15,36.15,0,0,1-.78,5c0,.13-.22.79-.43,1.71-.11.5-.19.86-.2.92-.44,2-4.07,5.21-4.59,8.62a7.31,7.31,0,0,0,0,1.87c.18,1.24.64,1.57.78,2.44s-.27,1.58-1.09,3.37c-1.49,3.23-.89,3.1-1.68,4.22-1.74,2.48-3.86,2-4.44,3.89-.47,1.52.67,2.39-.09,3.84-.48.91-1.11.92-1.87,1.91A5.81,5.81,0,0,0,365,75.51" transform="translate(-5.31 -2.15)"/><path class="a" d="M145,62.17a1.91,1.91,0,0,1-.94-.19c-.71-.35-1-1.09-1.41-2.17-.33-.9-.59-2-.59-2a3.28,3.28,0,0,0-1.49-1.72c-.9-.43-1.54-.07-2.55-.14-1.9-.14-3.25-1.64-4.14-2.63s-1.15-1.64-2.39-4.46c0,0-1.66-3.78-3.53-7.8a22.87,22.87,0,0,0-2.39-4.26c-.94-1.27-1.18-1.25-2-2.34-1.43-2-1.09-2.57-2.53-5.36-1.58-3.07-2.43-3.19-2.74-5.16-.26-1.75.27-2.58-.33-3.09s-1.78.2-5.45,1.21a10.17,10.17,0,0,1-5.11.48c-1.67-.36-2-1-2.08-1.21a2.24,2.24,0,0,1,.35-1.92c.42-.62,1-.83,2.11-1.25.6-.22,1.91-.77,3.08-1.16,2.31-.76,3.47-1.14,4.59-1.62,1.58-.67,1.52-.85,3.57-1.89,1.36-.7,1.78-.81,5.92-2.52,4.48-1.85,4.44-1.89,5.19-2.07a15.06,15.06,0,0,1,6.18-.37c.61.1,2.46.45,6.45,2.89A78.88,78.88,0,0,1,150,16.74c4.69,3.62,7,5.43,7.25,5.66,1.9,2.07,2.77,3.71,4.76,4,1.1.17,1.85-.19,3.56-.86,2.57-1,5.22-1.8,7.82-2.72a52,52,0,0,1,8-2.42,35.63,35.63,0,0,1,6.75-.58A54.08,54.08,0,0,1,202,21.48c5.1,1.28,7.65,1.93,10,3.58,2.51,1.78,5.14,4.62,6.46,3.86.43-.25.41-.69,1.61-2a5.36,5.36,0,0,1,1.4-1.21c1.06-.54,1.49-.05,2.36-.52s.66-1.18,1.73-2c.85-.65,1.29-.42,2.28-1a5.59,5.59,0,0,0,1.92-2.05c1.52-2.43,7.55-6.51,9.57-7.73,0,0,8.18-4.8,21.6-5.08a11,11,0,0,0,4.68-.81c1.07-.47,1.45-.88,4.29-2.48,1.9-1.07,2.65-1.4,3.31-1.08a2,2,0,0,1,1,1.75,3.51,3.51,0,0,1-1.28,2.38c-3.46,3.82-4.22,4.55-4.48,5.87-.18.86.11.74,0,2.26a14.15,14.15,0,0,1-1.38,5.34c-2.45,5.56-1,6.61-3.39,10.73s-4.14,3.75-5.57,7.73c-.67,1.85-.62,2.87-1.77,4.58-1.25,1.87-2.31,2.15-3.61,4.06-.92,1.34-.88,1.91-1.83,4.4-1.34,3.5-3.39,8.87-6.3,9.14-.74.07-.91-.24-1.88-.1a6.47,6.47,0,0,0-3.61,2.34A43.87,43.87,0,0,1,234,68" transform="translate(-5.31 -2.15)"/><path class="a" d="M41.82,35.49l-1.17,2.75c-2.21,5.26-2.42,6-2.55,6.61-.36,1.56-.14,1.82-.14,6,0,3.57-.16,3.17-.25,7.74-.11,6.1.17,6.58-.14,10a50.32,50.32,0,0,1-1,6.37c-1.08,4.82-2,8.75-4.34,9.36-1.38.36-2.73-.52-3.89-1.29a13.28,13.28,0,0,1-4.65-5.85c-1.9-4.07-4.69-7.66-7-11.5-5-8.15-7.47-12.23-7.87-12.72-1.21-1.48-2.62-3-2.72-5.34-.16-3.29,2.51-5.9,2.94-6.31,1-1,1.11-.62,5-2.87,3-1.74,3.23-2.13,5.44-3.27s2.05-.81,4.24-1.89A62.18,62.18,0,0,0,30,29.57c3.6-2.31,3.62-2.54,4.82-3.05,2-.84,4.74-2.06,6.76-1a3,3,0,0,0,1.69.61,3.29,3.29,0,0,0,2.13-1.33c1-1.09,2.72-1.49,6.19-2.28,3.12-.72,6.44-.83,12.94-1,1.89,0,1.93,0,2.92-.08,4.57-.23,6.26-.85,8.54-1,3.87-.28,3.5,1.15,10.17,2.12,6,.86,6.87-.21,9.91,1.28,2.42,1.2,2.24,2.07,5.77,3.86,2.23,1.13,3.27,1.27,5.36,2.67a33.17,33.17,0,0,1,3.48,2.86,55.79,55.79,0,0,0,5.49,4.22c2.35,1.55,2.71,1.46,3.47,2.4a8.77,8.77,0,0,1,1.7,4.84c.12,1.12,0,1.6-.55,5.6-.31,2.13-.58,4.27-.88,6.41-.62,4.43-.65,4.65-.67,5.28a31.09,31.09,0,0,0,.08,5.25c.19,1.07.45,1.92,0,2.32s-1.58,0-2.3-.26a9.78,9.78,0,0,1-3.36-2.3,29.19,29.19,0,0,1-4.45-6.33,43.14,43.14,0,0,1-2.87-6.89" transform="translate(-5.31 -2.15)"/><polyline class="a" points="97.23 30.47 99.13 38.93 99.57 43.28"/><text class="b" transform="translate(380.52 50.29)">My <tspan class="c" x="92.67" y="0">L</tspan><tspan x="114.34" y="0">ovely Dogs</tspan></text></svg>