<svg id="Layer_1" data-name="Layer 1" xmlns="http://www.w3.org/2000/svg" viewBox="0 0 802.78 178.26"><defs><style>.cls-1,.cls-2{stroke:#231f20;stroke-miterlimit:10;}.cls-1{stroke-width:1.5px;}.cls-2{fill:#231f20;}</style></defs><path class="cls-1" d="M637.75,50.19a3.31,3.31,0,0,0-.14-.64c0-.09-.08-.18-.11-.27a1.62,1.62,0,0,0-.1-.18,2.63,2.63,0,0,0-.29-.39c-.05-.06-.12-.11-.17-.17a1.49,1.49,0,0,0-.2-.15,2.82,2.82,0,0,0-.44-.26,5.19,5.19,0,0,0-2.27-.39c-3.8,0-6.67,2.27-9.61,4.38-.56.41-1.13.8-1.71,1.18a10.08,10.08,0,0,1-1.14.68A26.31,26.31,0,0,1,617,55.76c-.77.24-1.54.46-2.32.66l-.9.23-1,.23-2.61.57c-2.05.43-4.13.78-6.2,1.12-1.89.3-3.8.57-5.7.83-3.11.43-6.24.83-9.36,1.2-1.6.19-3.19.4-4.78.6l-1.43.19-1,.13c-1,.17-2,.31-3.08.5l-1.59.31-.58.13c-.39.08-.79.17-1.18.27-1,.24-1.9.47-2.84.75s-2,.63-3,1c-.83.29-1.68.62-2.48,1s-1.34.59-2,.91a36.08,36.08,0,0,0-7,4.35c-.6.49-1.18,1-1.78,1.49l-.91.79-1.13,1L551.92,76c-2.81,2.53-5.59,5.09-8.4,7.62-1.25,1.12-2.49,2.25-3.75,3.35-.45.39-.9.8-1.36,1.16a7.14,7.14,0,0,1-.89.67h0c-.55.25-1.1.53-1.62.82l-.6.34c-.17.09-.34.2-.5.3-.32.19-.64.4-.93.61s-.7.52-1,.8a17.94,17.94,0,0,0-1.77,1.72c-.19.19-.38.4-.58.59a10.54,10.54,0,0,1-1,.81c-.25.18-.5.33-.75.49a3.59,3.59,0,0,1-.53.24,12.25,12.25,0,0,1-2.56.44,9.3,9.3,0,0,0-1.58.26l-.3.13-.09.06-.15.1-.41.3-1.15.91a14.59,14.59,0,0,0-1.92,1.93c-.33.4-.66.86-1,1.29s-.52.71-.79,1a14.44,14.44,0,0,1-1.06,1.15h0a6.12,6.12,0,0,0-.71-.73,3.37,3.37,0,0,0-.37-.29c-.37-.26-.72-.53-1.11-.77l-.75-.48-.51-.31c-.4-.26-.83-.48-1.24-.72-.78-.45-1.59-.87-2.39-1.29s-1.6-.83-2.4-1.2l-2.39-1.13c-1.2-.53-2.39-1.07-3.59-1.58s-2.14-.89-3.21-1.33l-1.22-.47c-.79-.31-1.59-.63-2.39-.91l-1.84-.68c-2.05-.72-4.11-1.4-6.18-2.06-1.47-.47-3-.89-4.45-1.31-.79-.23-1.58-.43-2.37-.64-2.24-.59-4.5-1.11-6.77-1.58-1.33-.27-2.67-.53-4-.75s-2.49-.41-3.76-.56c-1-.13-2-.27-3-.36-1.52-.15-3-.28-4.58-.35a71.34,71.34,0,0,0-9.13.14l-1.94.2c-.78.09-1.57.19-2.34.32-1.56.27-3.11.58-4.66.93q-2.74.63-5.45,1.39c-1.71.49-3.42,1-5.11,1.51-1.26.4-2.52.79-3.77,1.2-2.71.89-5.41,1.82-8.11,2.77-3.15,1.1-6.3,2.23-9.46,3.32-1.12.38-2.24.77-3.36,1.13s-2.34.73-3.53,1.07a24.27,24.27,0,0,1-2.38.58,10.8,10.8,0,0,1-1.7.2,3.15,3.15,0,0,1-.51,0l-.08-.13a5.59,5.59,0,0,0-.45-.52l-.16-.18a3.19,3.19,0,0,1-.26-.26c-.12-.13-.26-.26-.39-.38-.28-.27-.59-.53-.87-.81-.1-.1-.23-.2-.34-.3-.33-.29-.67-.57-1-.87l-.49-.43L392,94c-.38-.31-.74-.64-1.12-.94-.59-.47-1.16-1-1.75-1.45-1.18-1-2.35-1.92-3.54-2.86l-1.07-.87c-1.24-1-2.48-2-3.72-2.94l-3.18-2.47L376,81.23c-1.52-1.15-3-2.31-4.53-3.46-1.14-.87-2.28-1.75-3.43-2.6-1-.72-1.95-1.45-2.92-2.18-1.44-1.08-2.9-2.15-4.36-3.2-.89-.66-1.79-1.32-2.71-2-.17-.11-.33-.24-.5-.36-.45-.33-.92-.65-1.39-1l-.83-.57c-.25-.17-.52-.33-.76-.5s-.65-.41-1-.61c0,0-.33-.2-.35-.2-1.18-.58-2.34-1.17-3.54-1.71-.43-.18-.85-.38-1.28-.55-.88-.35-1.75-.7-2.64-1-.4-.14-.81-.27-1.21-.39l-.5-.16c-.56-.17-1.14-.33-1.71-.47a31.08,31.08,0,0,0-3.57-.65c-.29,0-.59-.07-.88-.09-.68-.07-1.36-.08-2-.1s-1.39,0-2.08.08c-.34,0-.69.06-1,.1s-.53.06-.79.11l-.92.15a30.38,30.38,0,0,0-3.38.85c-.66.2-1.31.41-1.95.66-1,.38-2,.78-3.05,1.21s-1.87.83-2.8,1.26L317.51,65l-3.06,1.42c-.74.35-1.49.67-2.23,1-1.32.57-2.63,1.13-4,1.65-1,.41-2.08.83-3.13,1.19-.33.13-.68.25-1,.39-.62.27-1.21.56-1.82.87s-1.17.64-1.75,1c-2.59,1.49-5.11,3.16-7.83,4.4a16.65,16.65,0,0,1-2.47.92l-.88.22a3.1,3.1,0,0,0-.62.13l-.81.29c-.65.21-1.31.44-1.95.67-1.56.55-3.11,1.12-4.62,1.81-.59.27-1.21.55-1.78.87s-.89.5-1.33.77a7.76,7.76,0,0,0-.84.57l-.57.45a6,6,0,0,0-1.36,1.56,4.66,4.66,0,0,0-.22.45,3.38,3.38,0,0,0-.13.42,2.07,2.07,0,0,0-.07.49,2.66,2.66,0,0,0,.11.84,3.64,3.64,0,0,0,.8,1.38,5.44,5.44,0,0,0,.48.48,9.92,9.92,0,0,0,1,.8l.18.11a2.12,2.12,0,0,0,.2.12,5.3,5.3,0,0,0,.93.37,11.32,11.32,0,0,0,1.9.42l1.12.14c.61.06,1.23.09,1.84.11s1.09,0,1.64,0l.74,0,.62,0c.26,0,.54,0,.8-.08s.8-.15,1.21-.24.67-.19,1-.28c.13,0,.26-.08.38-.12.61-.18,1.2-.4,1.79-.62,1-.36,2-.75,3.07-1.11a37.71,37.71,0,0,1,5.31-1.49c.53-.1,1.07-.18,1.61-.24l.51,0a1.6,1.6,0,0,1,.32.23,3.58,3.58,0,0,1,.69,2.11c0,.52.06,1,.06,1.55a8.53,8.53,0,0,0,.18,1.89,1.92,1.92,0,0,0,.15.37l.08.13c.63,1,1.31,2,1.88,3,.11.21.23.4.34.6.31.55.61,1.11.9,1.66.78,1.49,1.5,3,2.2,4.55,1.75,3.85,3.29,7.83,5.31,11.55.2.37.41.73.62,1.09,1.68,2.86,3.77,5.41,5.68,8.11.33.48.67,1,1,1.43.17.25.32.5.49.75s.21.33.32.49.26.41.38.62.27.44.4.67.31.56.47.84h0c.2.41.41.81.61,1.21.42.84.81,1.7,1.19,2.55,1,2.25,1.86,4.55,2.75,6.84.56,1.44,1.11,2.87,1.68,4.3s1.08,2.57,1.65,3.84c.35.78.75,1.54,1.14,2.3s.85,1.61,1.32,2.37c.34.55.69,1.08,1.06,1.62a23.77,23.77,0,0,0,1.86,2.38,19.73,19.73,0,0,0,4.92,4,17.66,17.66,0,0,0,3.93,1.61c.26.08.51.14.76.2a8.09,8.09,0,0,0,1.29.22,7.94,7.94,0,0,0,1.29,0,7.8,7.8,0,0,1,2.1-.08,2.7,2.7,0,0,1,.56.14l.37.14a2.37,2.37,0,0,1,.36.17c.18.08.34.2.5.29a4.32,4.32,0,0,1,.36.91l0,.15c0,.18.1.38.16.56.17.61.32,1.24.5,1.86.24.85.48,1.68.75,2.52.16.5.34,1,.52,1.47s.35.87.55,1.29.31.65.49,1a5.32,5.32,0,0,0,2.59,2.6,3.13,3.13,0,0,0,.81.15,2.78,2.78,0,0,0,.76-.09.22.22,0,0,0,.16-.25.21.21,0,0,0-.25-.17,2.43,2.43,0,0,1-.54.08,1.85,1.85,0,0,1-.57-.06l-.32-.09c-.1-.05-.23-.1-.33-.16a3.5,3.5,0,0,1-.35-.23,6.1,6.1,0,0,1-.59-.55c-.11-.12-.2-.26-.31-.38s-.2-.28-.3-.42a7.58,7.58,0,0,1-.4-.68,7.14,7.14,0,0,1-.37-.73c-.26-.54-.48-1.09-.69-1.65a40.05,40.05,0,0,1-1.26-4.17c-.12-.49-.27-1-.38-1.47-.05-.18-.1-.42-.16-.59a5.79,5.79,0,0,0-.39-1.08,1.17,1.17,0,0,0-.5-.39,3.83,3.83,0,0,0-.63-.34l-.39-.15a3.78,3.78,0,0,0-1.25-.22c-.26,0-.51,0-.77,0a9.05,9.05,0,0,1-2.38.07,4.17,4.17,0,0,1-.51-.09c-.45-.11-.95-.23-1.41-.37a18.2,18.2,0,0,1-5-2.4c-3.58-2.5-6-6.27-7.92-10.13-.51-1-1-2.1-1.44-3.15-.52-1.21-1-2.44-1.49-3.66l-1.23-3.19c-.22-.58-.45-1.16-.68-1.74-.13-.35-.26-.71-.41-1.06l-.59-1.47c-.19-.48-.4-.95-.6-1.42-.63-1.5-1.33-3-2.09-4.46-.45-.84-.95-1.68-1.46-2.49l-.49-.75-.41-.6c-.51-.76-1.06-1.51-1.6-2.25-1.63-2.24-3.33-4.47-4.74-6.86-.64-1.08-1.22-2.21-1.76-3.34-.37-.76-.73-1.52-1.07-2.28-.69-1.54-1.34-3.09-2-4.63-1-2.27-2-4.54-3.15-6.74a59.83,59.83,0,0,0-3.25-5.51,3.73,3.73,0,0,1-.28-1.66c0-.38,0-.76,0-1.14s0-.47,0-.7a4.13,4.13,0,0,0-1-2.72,2.12,2.12,0,0,0-.55-.39.86.86,0,0,0-.39,0l-.87.09a27.27,27.27,0,0,0-2.94.58c-1.53.39-3,.89-4.49,1.42-.81.29-1.6.6-2.41.88a29.64,29.64,0,0,1-3.32,1,7.09,7.09,0,0,1-1.21.19s0,0,0,0a30.26,30.26,0,0,1-4.76,0c-.54,0-1.1-.1-1.63-.19a7.25,7.25,0,0,1-2.66-.87h0a8.76,8.76,0,0,1-1.17-.94,3.33,3.33,0,0,1-.62-.78c-.07-.12-.13-.24-.19-.37a2.36,2.36,0,0,1-.1-.38.55.55,0,0,1,0-.18,2.06,2.06,0,0,1,.19-1,2.93,2.93,0,0,1,.21-.39,6.56,6.56,0,0,1,1.63-1.61,22.55,22.55,0,0,1,4.59-2.47c.8-.35,1.61-.65,2.42-1,.3-.12.62-.24.92-.34l1-.35,1-.32c.35-.13.72-.24,1.07-.38l.24-.08c.18,0,.37-.06.55-.11.52-.12,1-.25,1.53-.42a28.36,28.36,0,0,0,4.8-2.25c.62-.35,1.23-.7,1.84-1.07l2.16-1.28c1.14-.69,2.31-1.35,3.51-1.93a15.36,15.36,0,0,1,1.51-.66l.44-.17A136.36,136.36,0,0,0,318,65.55c1.25-.59,2.51-1.15,3.77-1.72,1.68-.75,3.4-1.47,5.14-2,.73-.24,1.44-.45,2.18-.66.54-.14,1.09-.26,1.64-.38s1.16-.23,1.72-.29,1.21-.13,1.83-.17a24.57,24.57,0,0,1,5.35.28,35.62,35.62,0,0,1,7.83,2.26c.54.22,1.1.44,1.63.68s1.19.53,1.77.81l1,.48c.33.17.66.35,1,.51h0c.1.07.27.15.37.21s.31.18.46.28c.43.27.85.56,1.27.84.64.41,1.29.86,1.9,1.31l.92.65c.75.53,1.5,1.08,2.25,1.62,2.24,1.63,4.47,3.29,6.69,4.94l2.61,2c4.23,3.17,8.4,6.44,12.56,9.69.88.68,1.74,1.38,2.61,2.07,1.43,1.13,2.86,2.29,4.27,3.45.79.65,1.57,1.3,2.35,2,.26.21.52.42.77.64s.82.72,1.23,1.07,1,.87,1.44,1.32c.22.21.48.43.68.66l.2.21c.12.14.26.27.37.42a.72.72,0,0,1,.11.15,1.13,1.13,0,0,0,.15.21.85.85,0,0,0,.4.15,6.31,6.31,0,0,0,2.12-.11c.34-.05.69-.13,1-.2.85-.2,1.68-.43,2.52-.67s1.94-.59,2.9-.91c2.93-1,5.83-2,8.74-3l1.77-.63c.86-.31,1.72-.6,2.58-.9,1.27-.45,2.53-.89,3.8-1.32,1.56-.53,3.13-1.06,4.7-1.57l3.08-1c2.17-.69,4.37-1.3,6.56-1.9,1.92-.51,3.87-1,5.81-1.38.91-.18,1.83-.35,2.75-.5l1.61-.24h0a58.83,58.83,0,0,1,6.49-.47l1.51,0c.29,0,.59,0,.88,0,1.55,0,3.08.09,4.62.2q2.79.21,5.57.57c1.41.18,2.82.41,4.22.65,3.44.58,6.82,1.36,10.19,2.22,1.94.49,3.86,1,5.77,1.62s3.62,1.14,5.42,1.75l1.85.65,1.13.42c.64.21,1.27.47,1.9.7,1.1.41,2.2.85,3.29,1.29s2.05.85,3.07,1.29c1.59.68,3.19,1.4,4.74,2.16.5.24,1,.47,1.48.72l.74.37,1,.54c.9.46,1.76,1,2.64,1.46.32.18.67.38,1,.59s.85.51,1.25.81l.7.52a4.28,4.28,0,0,1,.67.6,1.51,1.51,0,0,1,.17.2l0,.09a0,0,0,0,0,0,0s0,.08,0,.09a.38.38,0,0,0,.45.27,1.46,1.46,0,0,0,.42-.33,14.29,14.29,0,0,0,1.91-2.2c.31-.43.62-.86.94-1.28.18-.24.39-.45.58-.68a7.93,7.93,0,0,1,.7-.72c.23-.22.48-.43.71-.63.53-.44,1.06-.85,1.61-1.25a0,0,0,0,1,0,0,1.7,1.7,0,0,1,.59-.19,10.78,10.78,0,0,1,1.14-.16,11.14,11.14,0,0,0,2.86-.55l.45-.21c.25-.16.52-.32.76-.5s.44-.34.66-.52a21.81,21.81,0,0,0,1.6-1.59A15,15,0,0,1,534,91.7a21.55,21.55,0,0,1,2.55-1.57c.26-.14.52-.28.78-.4l.37-.19.26-.13c.22-.15.42-.29.63-.46,2-1.63,3.87-3.38,5.78-5.1,3.23-2.91,6.42-5.86,9.67-8.75,1.62-1.44,3.24-2.88,4.94-4.22a36.65,36.65,0,0,1,3.26-2.22,43.57,43.57,0,0,1,8.8-4c1.11-.36,2.24-.68,3.37-1,.63-.17,1.27-.31,1.9-.45.82-.18,1.64-.36,2.46-.51,1-.19,2.05-.34,3.09-.5.62-.07,1.24-.17,1.86-.26,1.56-.21,3.13-.39,4.7-.58,5.13-.63,10.25-1.27,15.37-2.07,2.26-.36,4.51-.76,6.75-1.22,1.08-.22,2.16-.45,3.23-.72.85-.21,1.7-.43,2.55-.67.69-.2,1.39-.41,2.07-.65.48-.17,1-.33,1.42-.52s.84-.35,1.25-.54l.83-.41.57-.32c.59-.36,1.18-.73,1.73-1.14l.74-.52c.87-.63,1.73-1.27,2.63-1.85.35-.23.69-.46,1-.67a11.93,11.93,0,0,1,4.18-1.58,8.72,8.72,0,0,1,.88-.08h.42l.54,0h0a4.5,4.5,0,0,1,1.26.27,2.18,2.18,0,0,1,.63.4c.8.74.53,2.15.23,3.06-.09.27-.19.55-.3.81s-.22.52-.35.77-.29.61-.46.89l-.2.38c-.13.22-.26.44-.4.66-.31.54-.66,1.06-1,1.58-1,1.42-2,2.76-3.08,4.1-.61.76-1.23,1.5-1.86,2.23s-1.13,1.26-1.7,1.89-.88,1-1.33,1.43l-.89.91-.45.43-.47.42a2.39,2.39,0,0,0-.32.56,4.76,4.76,0,0,0-.3.7c-.07.29-.13.59-.19.9a5.22,5.22,0,0,0-.1,2,8.82,8.82,0,0,0,.3,1.23c.06.23.12.45.19.68a4.26,4.26,0,0,1,.13.62,3.49,3.49,0,0,1,0,1c0,.1-.05.23-.06.33h0c0,.19-.09.4-.14.59s-.15.59-.21.88-.07.31-.11.46c-.11.47-.23.94-.33,1.41l-.22.88c-.11.41-.21.82-.31,1.23-.33,1.31-.66,2.62-1,3.93-1,3.7-2,7.39-3.08,11-.3,1-.62,2-.94,3-.12.41-.26.81-.39,1.21-.27.84-.55,1.7-.85,2.53-.19.52-.37,1-.56,1.56-.32.85-.64,1.7-1,2.54-.14.34-.27.7-.43,1a30.06,30.06,0,0,1-1.49,3,9.26,9.26,0,0,1-1,1.36c-.71.82-1.43,1.63-2.13,2.45-.9,1.06-1.79,2.14-2.66,3.23s-2,2.48-2.85,3.76c-.62.89-1.24,1.79-1.82,2.71a18.1,18.1,0,0,0-1,1.64,13,13,0,0,0-.58,1.38c-.21.6-.41,1.18-.59,1.79-.52,1.66-1,3.35-1.63,5a7.46,7.46,0,0,1-2.17,3.32h0a32.5,32.5,0,0,0-4.16,3.8c-.48.49-1,1-1.41,1.55-.18.21-.34.42-.51.63a7.19,7.19,0,0,0-.61.87,10.17,10.17,0,0,0-.51,1c-.19.43-.38.87-.58,1.3-.64,1.46-1.28,2.93-1.93,4.39-1.09,2.42-2.21,4.84-3.43,7.2a59.12,59.12,0,0,1-3.16,5.46c-.62.94-1.26,1.83-2,2.71-.32.42-.67.81-1,1.21s-.79.88-1.21,1.28-.63.58-1,.86a14.88,14.88,0,0,1-2.05,1.49c-.25,0-.51-.06-.75-.1-.67-.09-1.33-.19-2-.26a4.31,4.31,0,0,0-1.56,0,5.73,5.73,0,0,0-1.07.48l-.56.32c-.22.12-.42.27-.63.4-.39.24-.78.53-1.15.8-1.27.95-2.53,1.92-3.74,3l-1.53,1.3c-.62.53-1.25,1.08-1.86,1.63l-2.18,2c-.61.55-1.2,1.12-1.8,1.68-.78.72-1.56,1.46-2.31,2.21-.32.31-.64.61-.95.93a.34.34,0,0,0,0,.49.36.36,0,0,0,.5,0c3.35-3.3,6.81-6.52,10.42-9.54,1.08-.91,2.17-1.81,3.3-2.66A22.34,22.34,0,0,1,568.3,173c.18-.09.35-.15.53-.22l.14,0h.28a1.71,1.71,0,0,1,.32,0c.19,0,.39,0,.58.06l.85.1c.3,0,.6.09.9.13s.77.12,1.13.14.34-.1.55-.22c.38-.23.75-.5,1.11-.76a24.83,24.83,0,0,0,4.6-4.73c.57-.74,1.1-1.53,1.61-2.31a58.46,58.46,0,0,0,3-5.08c.79-1.5,1.51-3,2.23-4.56.32-.69.65-1.39,1-2.08.2-.45.39-.9.59-1.34.63-1.39,1.22-2.79,1.85-4.18l.81-1.79h0s0-.09.07-.13a2.92,2.92,0,0,1,.25-.4,21,21,0,0,1,1.59-1.94c.25-.26.5-.52.74-.79s.7-.71,1-1.05.88-.85,1.33-1.26l1.09-.94c.25-.21.54-.38.79-.59a5.25,5.25,0,0,0,.89-1,7.05,7.05,0,0,0,.61-1,17.87,17.87,0,0,0,.81-1.85c.49-1.36.9-2.73,1.33-4.11.16-.51.31-1,.48-1.52,0-.16.12-.33.16-.49s.15-.38.21-.56a6.5,6.5,0,0,1,.25-.61c.09-.18.17-.37.27-.55l.16-.29h0c.53-.88,1.08-1.77,1.66-2.61s1.17-1.66,1.77-2.48,1.26-1.64,1.91-2.46c.38-.49.77-1,1.16-1.44s.6-.73.91-1.09c.65-.76,1.3-1.53,2-2.28l.56-.63c.14-.16.29-.33.41-.49a11.49,11.49,0,0,0,1-1.65c.33-.63.64-1.23.93-1.87.9-2,1.68-4,2.38-6.07.63-1.86,1.25-3.73,1.82-5.6.64-2.12,1.25-4.24,1.85-6.36.35-1.22.68-2.45,1-3.68.45-1.69.9-3.38,1.32-5.08.37-1.47.75-2.94,1.09-4.41l.33-1.4c.06-.22.12-.45.16-.67a4.67,4.67,0,0,0-.09-2.07,18.8,18.8,0,0,1-.51-2,5.33,5.33,0,0,1,0-.89,2.87,2.87,0,0,1,0-.31,4.37,4.37,0,0,1,.08-.48c.05-.28.11-.6.18-.88h0v0a.64.64,0,0,0,0-.07,1.89,1.89,0,0,0,.09-.21,3.26,3.26,0,0,1,.35-.67l0,0a4.59,4.59,0,0,0,.41-.36c.31-.29.61-.6.91-.9.85-.86,1.68-1.76,2.49-2.66q2.35-2.63,4.5-5.44c.66-.86,1.31-1.77,1.9-2.68.29-.45.57-.89.84-1.35s.42-.7.6-1A8.94,8.94,0,0,0,637.75,50.19Z" transform="translate(-63.01 -46.99)"/><path class="cls-1" d="M861,131.86c.07-.15.11-.31.17-.48a3.43,3.43,0,0,0,.23-.89c0-.19,0-.41,0-.59l.06-.39a2,2,0,0,1,.06-.34c.08-.39.17-.75.27-1.14s.18-.64.27-1c.19-.58.36-1.17.54-1.75,0-.15.07-.3.12-.44.11-.36.19-.7.28-1.06s.18-.71.24-1.08.1-.78.15-1.17,0-.71.08-1l.12-1.31c.12-1.23.26-2.46.39-3.69.07-.64.15-1.29.21-1.94s.15-1.26.22-1.88.11-1.19.18-1.79.13-1.29.18-1.93l.06-.81c.09-.9.14-1.81.19-2.7,0-.52,0-1.06,0-1.58,0-.2,0-.42,0-.62,0-.88,0-1.77-.1-2.65s-.11-2-.21-3c-.07-.64-.13-1.3-.19-1.94s-.14-1.06-.19-1.6-.12-.94-.19-1.41-.09-.66-.13-1c-.07-.59-.18-1.17-.28-1.75-.15-1-.35-2-.58-3-.16-.81-.36-1.6-.56-2.4-.07-.28-.15-.56-.23-.83a6.55,6.55,0,0,0-.19-.63A18.14,18.14,0,0,0,861,79c-.12-.22-.24-.41-.36-.62a5.65,5.65,0,0,0-.65-.83,4.22,4.22,0,0,0-1.62-1.12,1,1,0,0,0-.18-.06,2.15,2.15,0,0,0-.91-.06l-.15,0a9.33,9.33,0,0,0-.83.43c-.51.27-1,.6-1.54.9-.15.1-.31.21-.47.3-.34.2-.66.43-1,.63l-.43.28-1.33.86c-.61.42-1.23.83-1.85,1.24-2,1.39-4,2.78-6,4.22-2.69,2-5.4,3.91-8,5.94-1.06.83-2.16,1.63-3.21,2.48-.55.45-1.12.89-1.67,1.33l-1,.76c-.34.26-.69.56-1,.84-1,.88-2.09,1.75-3.1,2.66-.28.25-.57.52-.83.78s-.43.43-.64.63-.28.31-.43.46-.51.6-.75.89-.38.42-.55.65c-.4.48-.81.94-1.2,1.42-.24.3-.49.58-.73.88-.6.74-1.18,1.48-1.79,2.2s-1,1.3-1.52,2c-.8,1-1.58,2-2.36,3-5.21,6.76-10.19,13.7-15.48,20.4-.88,1.13-1.8,2.25-2.71,3.36-.43.53-.88,1-1.32,1.56-.59.72-1.22,1.39-1.81,2.08h0a6.19,6.19,0,0,1-1.62,1.08c-.48.23-1,.45-1.46.64-.21.08-.4.16-.63.23l-.35.14-.45.13a1.71,1.71,0,0,0-.87.41,2.08,2.08,0,0,0-.45.74,7.8,7.8,0,0,0-.43,1.76q0,.34-.09.66l-.06.85c0,.13,0,.26,0,.38a1.87,1.87,0,0,1-.34,0c-.44,0-.89.06-1.34.08h-.57c-.7,0-1.4,0-2.1,0l-1.59-.13c-.34,0-.68-.07-1-.12-.87-.1-1.76-.22-2.63-.35-2.66-.4-5.3-.92-8-1.3l-1.74-.25-1-.12-1-.1-1-.08c-2.87-.24-5.76-.38-8.64-.51-2-.09-4.07-.17-6.11-.22-.55,0-1.1,0-1.65,0-.91,0-1.83,0-2.75,0-1.42,0-2.85,0-4.28,0s-3.07.07-4.61.2c-.68.06-1.34.16-2,.25-.33,0-.64.11-1,.15l-1.07.18-.9.16-1,.17-.33.08-1.93.33c-.6.12-1.2.22-1.8.31-1,.17-2,.36-3.05.5-.78.12-1.55.23-2.33.32-.38.05-.78.11-1.15.13l-1.22.12c-.63,0-1.28.07-1.92.08-.45,0-.93,0-1.38,0l-.59-.06a5.47,5.47,0,0,1-1.9-.53,1.49,1.49,0,0,1,.17-1.18,6.32,6.32,0,0,0,.86-1.87.9.9,0,0,0,0-.16,4,4,0,0,0-.31-1.35,11.87,11.87,0,0,1-.58-1.71,3.6,3.6,0,0,0-.46-.89,7.09,7.09,0,0,0-.51-.68,5.85,5.85,0,0,0-.74-.83,5.41,5.41,0,0,0-.53-.35,6.86,6.86,0,0,1-.9-.8c-.41-.42-.79-.82-1.17-1.27-1.06-1.24-2-2.59-3-3.91l-.51-.73c-1-1.39-1.89-2.8-2.84-4.21l-1.27-1.91c-.29-.45-.58-.91-.89-1.35-.49-.71-.95-1.46-1.43-2.17s-1.1-1.64-1.65-2.46-1-1.41-1.45-2.1c-.09-.11-.15-.23-.24-.34l-.52-.71c-.23-.32-.46-.63-.7-.94-.11-.12-.21-.27-.32-.41a11.5,11.5,0,0,0-1.43-1.54,9.3,9.3,0,0,0-.83-.7c-.32-.24-.63-.49-1-.73s-.44-.31-.66-.45c-.76-.51-1.53-1-2.32-1.49-.5-.3-1-.58-1.49-.89-.74-.46-1.51-.88-2.24-1.33-.9-.56-1.81-1.1-2.7-1.67-.48-.3-1-.62-1.42-.94a35.73,35.73,0,0,1-4.26-3.31c-.42-.38-.8-.77-1.19-1.19-.24-.25-.46-.53-.7-.78a3.45,3.45,0,0,0-.28-.23c-.18-.15-.41-.28-.59-.44a1.88,1.88,0,0,0-.23-.16c-.17-.13-.33-.26-.51-.38-.43-.29-.85-.61-1.28-.92s-1-.66-1.43-1c-.69-.5-1.4-1-2.09-1.46l-3.36-2.33-3.34-2.3c-1.11-.77-2.26-1.52-3.37-2.3-.52-.37-1.07-.7-1.6-1.07-.36-.27-.73-.52-1.08-.77-.69-.5-1.36-1-2.06-1.5-.5-.36-1-.7-1.53-1.07s-.84-.55-1.26-.82l-.68-.42A3.14,3.14,0,0,0,649,81l-.52-.31-.5-.27-.46-.24-.85-.4c-.18-.08-.37-.14-.54-.22s-.43-.15-.64-.23a6.78,6.78,0,0,0-.88-.25l-.52-.12a6,6,0,0,0-2.16,0,4.91,4.91,0,0,0-.8.25,3.94,3.94,0,0,0-1,.67,6.48,6.48,0,0,0-1.92,3.85,10.59,10.59,0,0,0-.2,1.1c-.06.47-.11.92-.15,1.39l-.09,1.66c0,.65,0,1.34,0,2s0,1.58.07,2.38c.06,1.37.16,2.73.27,4.09.08,1,.19,2,.29,3.07.17,1.68.37,3.35.57,5,.27,2.16.52,4.33.8,6.49.08.57.15,1.16.22,1.74s.15,1.46.23,2.2c.07.53.12,1.08.16,1.62,0,.25,0,.52.06.77s0,.26,0,.38,0,.52,0,.77c0,.44,0,.92,0,1.36,0,.24,0,.47,0,.71a8.24,8.24,0,0,1,0,.85,8.42,8.42,0,0,0-.14,1c0,.25,0,.49-.05.74s0,.48,0,.71a18.1,18.1,0,0,0,.44,3.27,33.19,33.19,0,0,0,1.51,4.85c.19.48.37,1,.57,1.44a73.31,73.31,0,0,0,3.33,6.85c.64,1.19,1.3,2.37,2,3.54.46.81.95,1.61,1.42,2.41.33.55.65,1.12,1,1.67.16.25.33.53.47.79s.25.42.37.62h0l.22.39a5.3,5.3,0,0,1,.35.72c.14.31.27.63.4.94,0,.16.11.32.17.47s.2.5.28.75c.15.49.35,1,.49,1.48.09.32.2.64.3,1s.23.81.34,1.22c.28,1,.53,2,.77,2.93.06.25.13.48.18.72s.13.53.19.8.19.81.28,1.2.15.63.22.94.15.71.23,1.06c.24,1,.42,2,.63,3.06s.39,2.05.59,3.06c.12.55.18,1.11.3,1.65,0,.15.05.3.07.44.09.54.17,1.07.28,1.6a3,3,0,0,0,.16.59c.07.25.14.5.22.75a12.53,12.53,0,0,0,.94,1.91,5.84,5.84,0,0,0,.33.53l.4.56c.34.43.69.86,1.07,1.26s.79.81,1.22,1.19a31.89,31.89,0,0,0,4.23,3.07c.17.09.32.2.48.3,1,.59,2,1.18,2.94,1.78a18.59,18.59,0,0,1,2,1.38,5.87,5.87,0,0,1,.46.41,3.07,3.07,0,0,0,.25.26,1.11,1.11,0,0,0,.11.16,4.11,4.11,0,0,1,.25.52,9.27,9.27,0,0,1,.4,2.38c0,.21,0,.41.05.61,0,.59.06,1.17.1,1.76a26.4,26.4,0,0,0,.26,2.65,11.71,11.71,0,0,0,.28,1.17c0,.09.06.19.09.28a3.92,3.92,0,0,0,.22.51,2.91,2.91,0,0,0,1.43,1.44.2.2,0,0,0,.29-.07.21.21,0,0,0-.07-.29,2.67,2.67,0,0,1-.82-.95,8.06,8.06,0,0,1-.8-2.72c-.14-1-.19-2.1-.23-3.14,0-.26,0-.5-.05-.76a15,15,0,0,0-.29-2.5,5,5,0,0,0-.34-1,1.22,1.22,0,0,0-.17-.29c0-.06-.14-.17-.16-.22a3.47,3.47,0,0,0-.27-.3c-.09-.1-.22-.2-.32-.3l-.57-.45a25.5,25.5,0,0,0-2.37-1.56c-.35-.21-.72-.41-1.07-.63s-.4-.25-.61-.36-.18-.13-.29-.18L667,183c-.79-.47-1.54-1-2.29-1.5-.42-.29-.81-.58-1.2-.9s-.54-.41-.8-.63a13.52,13.52,0,0,1-3.88-5.11,10,10,0,0,1-.43-1.34c0-.12-.06-.27-.08-.4s-.09-.48-.13-.73l-.12-.77c-.07-.33-.11-.67-.18-1-.18-1-.34-2-.55-3-.13-.62-.26-1.25-.37-1.88s-.24-1-.33-1.56c0-.17-.08-.34-.12-.5-.08-.4-.18-.81-.25-1.21-.34-1.59-.74-3.17-1.14-4.75-.48-1.91-1-3.82-1.68-5.67a19.92,19.92,0,0,0-1-2.45c-.46-1-1.06-1.83-1.59-2.75-.24-.43-.51-.85-.76-1.27-.57-1-1.13-1.93-1.68-2.89-1.48-2.63-2.93-5.27-4.17-8-.19-.41-.36-.81-.54-1.22-.08-.19-.15-.38-.24-.58-.16-.37-.32-.77-.47-1.15s-.18-.51-.28-.76c-.27-.67-.5-1.38-.71-2.08a20.08,20.08,0,0,1-1-5.42,12.87,12.87,0,0,1,.07-1.4c0-.16,0-.32.07-.48s.06-.41.08-.6a18.09,18.09,0,0,0,0-2c0-.26,0-.54,0-.8s0-.81-.07-1.2c-.06-.7-.12-1.4-.2-2.1-.05-.46-.09-.92-.14-1.38-.11-.9-.21-1.8-.32-2.71-.27-2.17-.55-4.34-.81-6.52-.36-3-.7-5.94-.93-8.92-.18-2.38-.33-4.76-.28-7.15a27.58,27.58,0,0,1,.35-4.06,8.63,8.63,0,0,1,1-3,5.06,5.06,0,0,1,.64-.76,3.34,3.34,0,0,1,.45-.38l.42-.24a2.62,2.62,0,0,1,.49-.19,5.15,5.15,0,0,1,2.67.06,5.59,5.59,0,0,1,.73.2l.39.15a9.77,9.77,0,0,1,.94.39l.44.2.57.29c.43.23.85.46,1.27.71.69.43,1.37.86,2,1.31s1.46,1,2.16,1.52c1.1.8,2.2,1.6,3.32,2.36.25.16.53.33.77.52l.29.19c.16.1.33.22.48.33l.39.26c.35.26.74.52,1.1.75s.73.51,1.1.76c2,1.38,4,2.73,6,4.12.32.23.65.46,1,.67s.7.51,1,.74c.7.47,1.39,1,2.08,1.46.35.25.71.49,1,.74l.43.32c.33.26.71.49,1.05.76l.25.19.15.13c.2.23.4.48.62.7l.5.53c.54.54,1.11,1.07,1.7,1.57s1.25,1,1.9,1.49l1.22.86.85.58c1.58,1,3.2,2,4.83,3,1.3.79,2.62,1.55,3.91,2.38.63.41,1.27.82,1.89,1.28.38.29.78.59,1.14.9s.5.47.74.71l.35.37c.29.35.58.69.84,1,.43.57.86,1.12,1.26,1.7l.16.23c.34.5.71,1,1,1.5a3.46,3.46,0,0,0,.22.31c.14.22.3.45.45.67l1.07,1.6c.52.77,1,1.54,1.53,2.32.19.29.37.59.57.87.67,1,1.33,2,2,3.06.92,1.4,1.88,2.8,2.84,4.17.63.9,1.26,1.77,1.92,2.64.46.63,1,1.26,1.48,1.86a16.85,16.85,0,0,0,1.67,1.71,5.08,5.08,0,0,0,.79.59,4,4,0,0,1,.88.95,4.24,4.24,0,0,1,.72,1.16s0,0,0,0a1,1,0,0,0,.07.28,5.62,5.62,0,0,0,.19.58c.07.21.15.44.23.65a3.84,3.84,0,0,1,.38,1.37,2.94,2.94,0,0,1-.42,1,3.8,3.8,0,0,0-.71,1.87,1.41,1.41,0,0,0,.07.5.79.79,0,0,0,.17.37,1.48,1.48,0,0,0,.34.21,5.52,5.52,0,0,0,1,.35l.3.06a7.55,7.55,0,0,0,.83.13c.18,0,.36,0,.53.06l.59,0c.52,0,1,0,1.57,0,.23,0,.45,0,.66,0l1.33-.1c.57,0,1.15-.11,1.71-.17,1.24-.14,2.47-.35,3.71-.54s2.53-.42,3.79-.65l1.21-.21.53-.11,1.5-.26,1.74-.3c.62-.11,1.25-.18,1.88-.27.38-.06.78-.07,1.18-.13,0,0,.2,0,.27,0l.65,0c.63-.07,1.29-.06,1.92-.09.93,0,1.86,0,2.78-.05.56,0,1.11,0,1.65,0s1.33,0,2,0h.87l1.23,0c.5,0,1,0,1.51,0,2.22.06,4.44.15,6.67.24,1.08,0,2.18.09,3.27.16l2.4.14,1.57.11c.66,0,1.33.12,2,.16,1,.12,2.13.23,3.19.39,1.57.23,3.13.49,4.7.76.51.09,1,.17,1.54.27l.89.13c.8.14,1.6.25,2.4.37,1,.14,1.93.25,2.9.34q.4,0,.81.06c.6.05,1.2.07,1.8.08.8,0,1.59,0,2.37,0l.9-.07a.9.9,0,0,0,.4-.09c.23-.18.2-.75.25-1s0-.44.06-.66a14,14,0,0,1,.36-2c.11-.32.3-.84.67-.93h0l.46-.12,1.3-.46c.28-.1.56-.25.85-.37a11.48,11.48,0,0,0,2.12-1.16l.14-.12a2.87,2.87,0,0,0,.54-.56l.78-.88c.9-1,1.77-2.07,2.64-3.12,1.82-2.23,3.61-4.49,5.34-6.78l3.08-4.06c.23-.3.45-.62.67-.92.71-.92,1.41-1.85,2.09-2.77q1.33-1.8,2.68-3.59c.36-.46.7-.94,1.06-1.4l1.75-2.31c1.43-1.86,2.85-3.72,4.31-5.56.75-.94,1.52-1.87,2.28-2.82.6-.72,1.18-1.45,1.79-2.15.2-.23.4-.48.59-.71s.62-.69.91-1.05.44-.5.68-.73c.4-.38.8-.76,1.22-1.14s.6-.55.92-.81.58-.52.88-.76c.48-.41,1-.82,1.44-1.22.29-.22.56-.44.84-.67s.61-.5.92-.74.51-.43.78-.63l1.29-1,.63-.5c.41-.32.83-.62,1.23-1s1-.76,1.52-1.15c1-.79,2.07-1.58,3.12-2.35l1.85-1.36c1-.69,1.92-1.4,2.89-2.09l1.35-1,.77-.55,1.65-1.16,1.84-1.26.64-.43c.35-.25.71-.47,1-.7.55-.39,1.13-.75,1.69-1.12.22-.14.45-.27.67-.42l.66-.41c.1-.07.22-.12.32-.2.31-.2.64-.37,1-.56s.8-.46,1.2-.66a1.75,1.75,0,0,1,.56,0,3.72,3.72,0,0,1,1.93,1.44s0,0,0,0a5.47,5.47,0,0,1,.41.65c.22.41.42.8.6,1.22.08.19.16.39.23.58.19.51.36,1,.52,1.53a45.72,45.72,0,0,1,1.19,5c.14.73.27,1.47.4,2.2.06.35.09.69.16,1s.12.82.17,1.24.11.84.17,1.27.06.61.1.91c.11.78.18,1.59.25,2.38s.15,1.77.21,2.65c0,.38.05.77.07,1.15s0,.54,0,.81l0,.94c0,.25,0,.53,0,.78s0,.69,0,1c0,.17,0,.37,0,.55-.2,3.94-.7,7.92-1.12,11.86-.1,1-.2,1.93-.3,2.88l-.09,1c0,.43-.08.86-.11,1.29a16,16,0,0,1-.28,1.8c0,.17-.08.35-.12.52-.09.34-.18.68-.28,1s-.3,1-.44,1.46l-.21.68c-.2.72-.41,1.41-.55,2.15,0,.26-.08.52-.11.77s0,.26,0,.38v0a2.11,2.11,0,0,1,0,.25,7.48,7.48,0,0,1-.59,1.64c-.19.42-.39.85-.6,1.25a1.27,1.27,0,0,0-.12.23l-.31.59-.83,1.54c-.08.15-.15.3-.24.45s-.21.39-.31.58-.39.66-.56,1-.5.93-.76,1.39-.62,1.15-.93,1.73c-.69,1.27-1.34,2.57-2,3.88-.18.39-.37.78-.55,1.18s-.39.91-.59,1.36c-.11.23-.19.48-.3.72l-.35.93c-.07.17-.14.34-.2.53s-.11.34-.18.52a2.41,2.41,0,0,1-.08.25c-.1.35-.22.69-.31,1a6.76,6.76,0,0,0-.17.68c-.13.52-.21,1-.29,1.54,0,.11,0,.23,0,.34a1.24,1.24,0,0,0,0,.43c0,.11.1.2.13.31s.26.47.38.71.37.72.55,1.1c.11.22.2.43.3.65l.1.24c0,.07.06.15.08.22a3.23,3.23,0,0,1,.2.77.08.08,0,0,1,0,0,2.51,2.51,0,0,0,0,.39,10,10,0,0,1-.07,1.09,17.12,17.12,0,0,1-.31,2c-.08.35-.16.71-.23,1.08s-.2.79-.29,1.18-.2.72-.29,1.08c-.15.52-.3,1.06-.48,1.58-.09.31-.16.62-.28.93s-.27.82-.39,1.22-.27.77-.41,1.15c-.23.68-.49,1.35-.76,2-.18.43-.34.86-.53,1.28s-.31.7-.47,1-.26.49-.37.73a5,5,0,0,1-.36.64c-.06,0-.13.14-.19.19s-.39.36-.57.52c-.44.37-.86.78-1.29,1.15s-.72.63-1.09.94c-.19.16-.38.36-.58.51s-.6.54-.91.8c-.69.57-1.35,1.17-2,1.75l-1.35,1.17a8.42,8.42,0,0,0-.64.55c-.19.16-.4.31-.59.48s-.19.15-.27.25a2.59,2.59,0,0,0-.17.33,4.73,4.73,0,0,0-.19.74,13.94,13.94,0,0,0-.15,1.7c0,.18,0,.37,0,.55,0,.78,0,1.55-.05,2.33,0,.55,0,1.09-.09,1.63a3.72,3.72,0,0,1-.08.66c0,.1-.05.2-.06.3a.55.55,0,0,0,0,.17v0a5.93,5.93,0,0,1-.62,1.2c-.11.15-.22.27-.33.42s-.32.35-.48.51l-.76.7-.28.25c-.28.26-.59.54-.85.82l-.32.4a5.84,5.84,0,0,0-.53.77,11.86,11.86,0,0,0-.56,1.13,16.51,16.51,0,0,0-.9,4.73.26.26,0,0,0,.23.26.24.24,0,0,0,.26-.22c.15-2.11.66-4.74,2-6.39a10.22,10.22,0,0,1,.9-1,17.54,17.54,0,0,0,1.61-1.5,5.56,5.56,0,0,0,1.27-2.29c0-.17.06-.37.09-.54a9.06,9.06,0,0,0,.09-1.16c0-.3,0-.62,0-.93s0-.61,0-.92c0-.76,0-1.54.08-2.29,0-.5.07-1,.16-1.47a1.24,1.24,0,0,1,.27-.58l0,0c.27-.22.55-.43.8-.66s.45-.38.67-.57l.4-.34c.38-.32.75-.66,1.13-1,.54-.45,1.07-.9,1.6-1.38s1.34-1.13,2-1.73c.94-.86,2-1.67,2.85-2.56a1.53,1.53,0,0,0,.14-.21c.12-.2.23-.43.35-.63s.27-.54.4-.81.3-.63.42-1c.34-.78.68-1.56,1-2.35.15-.38.29-.75.43-1.13.05-.13.09-.27.14-.4.14-.38.26-.75.39-1.13.22-.62.44-1.25.63-1.89a38,38,0,0,0,1.58-7.14,5.77,5.77,0,0,0,0-.83c0-.13,0-.28,0-.41l0-.25a2.22,2.22,0,0,0-.09-.37,1.87,1.87,0,0,1-.07-.22,4.94,4.94,0,0,0-.19-.49c-.1-.27-.23-.54-.35-.79s-.36-.76-.55-1.1c-.06-.1-.1-.2-.16-.3s-.15-.32-.24-.46l-.06-.12c0-.32.08-.65.13-1s.1-.54.16-.81a24.36,24.36,0,0,1,.72-2.49c.27-.77.57-1.54.89-2.29.12-.3.23-.6.37-.89.23-.47.44-.94.66-1.42s.53-1.1.8-1.63.61-1.2.92-1.79.56-1.07.85-1.58.43-.8.64-1.2c.08-.13.14-.29.23-.41l.21-.38c.11-.23.25-.44.36-.66s.24-.44.35-.64c.28-.51.56-1,.84-1.53.44-.84.89-1.67,1.3-2.53C860.65,132.58,860.8,132.21,861,131.86Z" transform="translate(-63.01 -46.99)"/><path class="cls-2" d="M310.28,134.75a14.85,14.85,0,0,0-1.42-4.39c-2.92-6-10-7.88-15.08-11.54-3-2.1-5.9-5.69-9-8.38a44.29,44.29,0,0,0-13-7.71,19.66,19.66,0,0,1-5.33-3.06c-3.17-2.82-6.51-5.76-10.71-6.85-4.7-1.07-9.57-1.12-14.36-1.52-.64,0-1.26-.1-1.89-.16-.7-.44-2.55-.43-3-.65a49.12,49.12,0,0,1-8.56-2.43,38.38,38.38,0,0,0-14.43-2.33c-7.46.69-14.15,2.11-21.73,2.39-14.75-.23-30.29-.21-43.64,6.95-1.45.88-3.38,1.66-4.55,2.86-2.66-1.58-6.44-1.85-9.23-1.65-11.4.73-19.05,10.38-28.85,15-8.19,4.41-16.48,7-24.53,11.73A38.32,38.32,0,0,0,66,135.37c-1.7,2.43-3.29,5.55-2,8.52.73,1.8,2.08,3.26,3,5,1.61,2.68,2.25,5.23,3.53,8.22a126.67,126.67,0,0,0,9.81,16.73c4,5.5,8.15,10.89,11.53,16.8,2.47,4.43,4.29,9.19,6.72,13.64,2.09,4,5.31,7.19,8.1,10.68,2,2.4,4.59,6.76,7.66,8.93,5.39,3.74,10.07-5,12.17-8.9,2-3.59,2.93-7.6,3.6-11.63,1.45-6.47,1.26-13.08,1-19.65-.09-7.78.43-15.54.77-23.31.33-6.46-.06-13.75.85-19.65.5-2.64,1.78-5.07,2.7-7.59,1.85-4.74,3.61-9.52,5.49-14.25.62-1.12-.79-1.66-1.13-.17-2,5-3.84,10.09-5.82,15.1a51.44,51.44,0,0,0-2.2,6,39.69,39.69,0,0,0-.66,6.06c-.14,11.19-.82,22.37-1.11,33.56-.15,5.85.44,11.7,0,17.54-.77,4.86-1.44,11.22-3.59,15.68-2.31,4.43-4.24,9-8.61,10.93-3.61.9-7.33-5.89-10.38-9.53-2.89-3.61-5.78-6.39-7.88-10.41-3.68-7.18-6.69-14.74-11.59-21.23-5.22-7.19-10.55-14.29-14.58-22.24-2.16-3.5-2.94-7.13-4.88-10.93-3.08-5.42-5.71-6.77-2.06-12.44a37.48,37.48,0,0,1,15.45-13c7.54-4.47,15.5-6.94,23.38-11.12,7.64-3.58,14.63-10.34,21.85-13.53,6-2.41,14.31-2.93,17.89,1.68.26.25.06.61.51,1a.57.57,0,0,0,.82-.64,6,6,0,0,0-1.92-2.6c9.25-6.2,20-8.48,31-9.19,6.14-.46,12.29.18,18.43-.23,7.18-.37,14-2,20.81-2.3a39.48,39.48,0,0,1,14.3,2.79,47.25,47.25,0,0,0,9,2.29.49.49,0,0,0,.44.26c6.12.71,12.15.42,17.8,2a22.73,22.73,0,0,1,7.15,4.31,21.82,21.82,0,0,0,6.35,4.57c4.59,2,9.6,4.22,13.29,7.37,3.35,2.66,6,6.08,9.36,8.74,5.12,4,12.38,5.82,15.26,11.18a12.75,12.75,0,0,1,1.66,5,31.68,31.68,0,0,1-.24,4.13.27.27,0,0,0-.09,0s-.06,0-.1,0a27.35,27.35,0,0,1-.46,3.69c0,.27,0,.55,0,.82-.13,4-.67,9.17-1.14,12.57-1.47,10.09-3.74,20.31-2.14,30.53.29,2.77.23,3.86-1.32,3.15-6.48-3.53-12.29-7.63-16.21-13.53-4.4-6.19-6.63-12.74-9.25-19.81-.16-.33-.16-.78-.49-1a.56.56,0,0,0-.82.63c3.08,8.67,6.37,17.5,12.49,24.53a53,53,0,0,0,11.62,9c4.48,2.87,5.77,1.46,5-3.52-1.93-13.67,2.57-26.57,3.25-40.25a.59.59,0,0,0,.07-.26c.18-1.65.35-3.3.52-4.94A35.79,35.79,0,0,0,310.28,134.75Z" transform="translate(-63.01 -46.99)"/><path class="cls-2" d="M272.68,120.92a65,65,0,0,0-2.63-9.21.56.56,0,0,0-1,.49c2.94,8.25,3.81,16.36,4.77,24.84a7.68,7.68,0,0,0,.34,2.16.57.57,0,0,0,.88-.12A149.23,149.23,0,0,0,272.68,120.92Z" transform="translate(-63.01 -46.99)"/></svg>